<svg width="28" height="24" viewBox="0 0 28 24" fill="none" xmlns="http://www.w3.org/2000/svg">
<g filter="url(#filter0_d_118_13)">
<path fill-rule="evenodd" clip-rule="evenodd" d="M26.5063 12.2022L22.5995 16.0289C21.5201 17.1053 19.9006 15.4908 20.9799 14.4141L22.2986 13.104C22.599 12.8058 22.5002 12.564 22.0782 12.564H9.19853C8.55929 12.564 8.05021 12.0528 8.05021 11.4221C8.05021 10.793 8.56432 10.2805 9.19853 10.2805H22.0782C22.4986 10.2805 22.599 10.0385 22.2986 9.74029L20.9799 8.42983C19.9006 7.3537 21.5201 5.73871 22.5995 6.81512L26.5009 10.6026C26.957 11.0454 26.9578 11.7599 26.5063 12.2022ZM19.7622 4.00014C20.2837 4.5217 20.2837 5.36751 19.7622 5.88939C19.2403 6.41095 18.3945 6.41095 17.8729 5.88939C14.8173 2.83376 9.86309 2.83376 6.8076 5.88939C3.75211 8.94501 3.75198 13.8992 6.8076 16.9547C9.86322 20.0103 14.8174 20.0103 17.8729 16.9547C18.3945 16.4329 19.2403 16.4329 19.7622 16.9547C20.2837 17.4763 20.2837 18.3221 19.7622 18.844C15.6631 22.943 9.01719 22.943 4.91821 18.844C0.819239 14.7449 0.819171 8.09897 4.91821 4C9.01725 -0.0989738 15.6632 -0.0989048 19.7622 4.00014Z" fill="white"/>
</g>
<defs>
<filter id="filter0_d_118_13" x="0.843994" y="0.925781" width="27" height="22.9924" filterUnits="userSpaceOnUse" color-interpolation-filters="sRGB">
<feFlood flood-opacity="0" result="BackgroundImageFix"/>
<feColorMatrix in="SourceAlpha" type="matrix" values="0 0 0 0 0 0 0 0 0 0 0 0 0 0 0 0 0 0 127 0" result="hardAlpha"/>
<feOffset dy="1"/>
<feGaussianBlur stdDeviation="0.5"/>
<feComposite in2="hardAlpha" operator="out"/>
<feColorMatrix type="matrix" values="0 0 0 0 0 0 0 0 0 0 0 0 0 0 0 0 0 0 0.25 0"/>
<feBlend mode="darken" in2="BackgroundImageFix" result="effect1_dropShadow_118_13"/>
<feBlend mode="normal" in="SourceGraphic" in2="effect1_dropShadow_118_13" result="shape"/>
</filter>
</defs>
</svg>
